PathFileType	4	(X/Y/Z)	61_2_81_p0_0-514_filt_butterworth.trc
DataRate	CameraRate	NumFrames	NumMarkers	Units	OrigDataRate	OrigDataStartFrame	OrigNumFrames
59.0	59.0	7	27	m	59.0	449	514
Frame#	Time	RHip			RKnee			RAnkle			RBigToe			RSmallToe			RHeel			LHip			LKnee			LAnkle			LBigToe			LSmallToe			LHeel			Neck			Head			Nose			RShoulder			RElbow			RWrist			RThumb			RIndex			RPinky			LShoulder			LElbow			LWrist			LThumb			LIndex			LPinky			
		X1	Y1	Z1	X2	Y2	Z2	X3	Y3	Z3	X4	Y4	Z4	X5	Y5	Z5	X6	Y6	Z6	X7	Y7	Z7	X8	Y8	Z8	X9	Y9	Z9	X10	Y10	Z10	X11	Y11	Z11	X12	Y12	Z12	X13	Y13	Z13	X14	Y14	Z14	X15	Y15	Z15	X16	Y16	Z16	X17	Y17	Z17	X18	Y18	Z18	X19	Y19	Z19	X20	Y20	Z20	X21	Y21	Z21	X22	Y22	Z22	X23	Y23	Z23	X24	Y24	Z24	X25	Y25	Z25	X26	Y26	Z26	X27	Y27	Z27	
449	7.610169491525424	0.3634853399721993	0.5860654186591054	0.9430034326373085	0.36373177356408165	0.7240773325907109	1.3526654504220716	0.3552978446114641	0.8819040760561138	1.7882199550676827	0.3035073784262734	0.7277931701351605	1.8322483118721973	0.3663890054486636	0.7042855903446965	1.8216138713288819	0.3459188277698505	0.9018566111946341	1.8061758494729105	0.16205132404364445	0.5815017874281773	0.9558163407772375	0.17447622795531675	0.6679174235538666	1.3519767788523742	0.18981054512476153	0.7636523718541626	1.7664976327188935	0.18855146035375847	0.605939869323305	1.7764920206274566	0.13361094428685893	0.6496146815297096	1.7817776474332458	0.19740259168491453	0.8379425102837692	1.8077658314786738	0.252826674298578	0.48022333618402624	0.4384617707092016	0.2527119686355598	0.38671052270081524	0.20700303150483856	0.26369297214970994	0.33775577313262023	0.3510040831400932	0.4257012202674221	0.5034539126414179	0.5126358181082908	0.4650816662129585	0.5596336916787105	0.7563331723566253	0.4611521468049296	0.5738686326758665	1.0116619206738946	0.40720423009318085	0.5707419567253151	1.1205173421208672	0.4384401041469041	0.5449117483590185	1.1231117329215203	0.46250962589081257	0.5766798873063538	1.1210929854120908	0.09979118239219249	0.5276409388525328	0.5136658867518156	0.06781991576706142	0.5519920439817012	0.7817396600321557	0.07212946870719143	0.5412944326767225	1.0188341223701347	0.13410765552288756	0.5541907247372819	1.1235327379569138	0.11331624777777159	0.5159713797178377	1.157961558537141	0.05836323891991445	0.5670304628283694	1.146014789028495
450	7.627118644067797	0.36368703861686935	0.585730844572746	0.9440033807876272	0.3636199589586758	0.7257647419191986	1.3518294001600968	0.3552763333654064	0.8819009207279963	1.7881295423485448	0.30155274381604225	0.7351027854674326	1.8348227838083262	0.3661823214227934	0.7041851223536458	1.8217633061826588	0.3458588168544864	0.9018662958338415	1.8063059404758395	0.16233559234546377	0.5820121945391326	0.9570130390721018	0.17446440370318536	0.668003469340598	1.3520746842815712	0.1898449662846778	0.7636559849235821	1.7664919678384086	0.18704363666056628	0.6207403240739864	1.7827667574351371	0.13111560983556128	0.6554811682994736	1.784097093928899	0.1978905719836211	0.8373082750507824	1.8056020976188496	0.25282393832725847	0.48018721533796255	0.43845184898955464	0.252714889498622	0.38668972103064975	0.20701158452570567	0.2635881500807864	0.33774960846387436	0.350239983448457	0.42571408115524456	0.503440531403685	0.5126459034508839	0.46468831281877854	0.5594360382329567	0.7563779030669907	0.4608335954498618	0.5725801624523712	1.0115534583769255	0.4071622714182002	0.570849280073363	1.1205464604463884	0.4383502611983682	0.5450675134887373	1.122294658928556	0.4616462666419304	0.5734376432386252	1.1206796531795182	0.09969488612810987	0.5270938566591452	0.5127180851688256	0.06782404807927568	0.5519857528898906	0.7816533997920607	0.07204369943784968	0.5414080190857125	1.0191774985494595	0.13357222259223434	0.5493864357516648	1.1223631106476946	0.11316411271320717	0.5155832187798696	1.1573411722761164	0.0583289254981639	0.5669953811324069	1.1459530752284028
451	7.6440677966101696	0.36391802704546794	0.585245668946851	0.9438811786859647	0.3636995323212416	0.7259620092192121	1.3500226459059528	0.35526059962012596	0.8819002494881831	1.788082411942368	0.30069835310113996	0.742899636377427	1.8383180054954809	0.3659467121324696	0.7040056429317838	1.8218811687124783	0.34583004795720335	0.9018875259723413	1.806403786370072	0.16262214744998307	0.5821874559891119	0.9575067161378392	0.17453642026464777	0.668263924082357	1.3520985607622298	0.18986205743970314	0.7636193832046068	1.7664742746990942	0.1876246408762208	0.6297743179626407	1.7874559518031683	0.12924512156173393	0.659837816196855	1.7858415913021162	0.1982955138647911	0.8367952124586301	1.8039331484002372	0.25281291054536204	0.48017634377050944	0.43844194608551035	0.2527114299805353	0.3866807708620493	0.20701523576107925	0.26349440536250673	0.3377318631041358	0.34943770864905127	0.4257197167911384	0.5034300905291864	0.5126580785944104	0.4636945679413278	0.559018729903347	0.7564654778628671	0.46000727131767694	0.5693295441011528	1.0112485196397125	0.4071604701999389	0.5708533965949799	1.1205706865619236	0.4383530692603868	0.5451292960269565	1.1219490899143063	0.46132298091283963	0.572087788499873	1.120494656517084	0.09960580486332553	0.5263530386941534	0.5114646403325991	0.0678773976350646	0.551966125546288	0.7816413201187253	0.07203785554204833	0.5414027528777058	1.0191458987205695	0.13311100829497272	0.5457183087078731	1.1215002219010777	0.1129041816737745	0.5151150162950042	1.1560093854395772	0.05826666978810767	0.5670106171426658	1.1458739897129253
452	7.661016949152542	0.3640820623764852	0.5848902115977026	0.9428665315387923	0.363943671514533	0.7241459700116594	1.3482867325144845	0.3552468293678734	0.881911719727809	1.7880828327999296	0.30100659736197993	0.7475678104172369	1.8415283181914643	0.3660681155980068	0.7043949498035074	1.8219389896544058	0.34581171332508104	0.9019076581652539	1.8064638768673669	0.16280511347707355	0.5821187420913676	0.9575235271264436	0.17478267944854944	0.6687965942457128	1.3521247874269837	0.18985403185475058	0.7635518861865964	1.7664445416282255	0.18809602725967828	0.6347997021509009	1.7917852560757899	0.1285367406869718	0.6614724257315341	1.7865037350934805	0.19849903911097902	0.8365654363307576	1.8032874331795914	0.25281479621801023	0.4802063454578376	0.43843106931309206	0.2527012421134814	0.38668232734403857	0.20701368116674176	0.2634750786948733	0.33772551602339673	0.34906179321706987	0.42572025269188196	0.5034380920596457	0.5126701381437239	0.4622837410093747	0.5576044298445637	0.7565495796115465	0.45891212198486064	0.5650791893827254	1.0108330608003953	0.407333940788792	0.5703501745344661	1.1205024932619492	0.4384464977439443	0.5451152552975523	1.1218894896240277	0.4613190787442519	0.5720057031765868	1.1204399323133696	0.09957535466807331	0.5258152472692539	0.510454789590473	0.06799968962959861	0.5519111070515841	0.7820292430323704	0.07206794387395428	0.541323725318222	1.0190300366191296	0.13297660186915447	0.5443111642401196	1.1211787650511784	0.11269134079875652	0.5143519416113669	1.1544837140707602	0.058189844830994	0.567077081582911	1.145823470506851
453	7.677966101694915	0.36417259386149864	0.5846868766489886	0.9416088529072719	0.3642622938261452	0.7220747074298708	1.3474948875834196	0.35523298620342486	0.8818962709402536	1.78809573187042	0.3015602613443334	0.7486816765261034	1.8433079103154972	0.3670983910603048	0.7064693537258795	1.8221170769389954	0.34578844113393203	0.901892435158229	1.8065063031382473	0.16287340672684442	0.5820029031388904	0.9573754829411002	0.17519809017258797	0.6693914901909226	1.3522592553125374	0.18981288830725418	0.7633444419214723	1.766358414333658	0.18777173940465297	0.6372806365869275	1.7955011854182443	0.1285255204494589	0.6614810635226882	1.786479810118765	0.19855261857692771	0.8365204777617309	1.8032978317336943	0.2528632896096389	0.4802618445184706	0.43842072751334393	0.25269177448786734	0.3866889967430463	0.20700819573286974	0.2634941688907596	0.3377475162723453	0.3490270288388915	0.42571705548211625	0.5034581789637207	0.5126787871164851	0.4609234812673596	0.5545198807502065	0.75655851177295	0.45808417180788086	0.5619327070930671	1.0105125093779854	0.40778211072416715	0.5690187953623371	1.120259647257473	0.43858189895419275	0.5450246221225203	1.1219627110148362	0.46138701733506415	0.5722217012614748	1.1203840438218124	0.0996669979254262	0.5259331375315851	0.5100567095384493	0.06815185020899597	0.5518363558914946	0.7830494225609932	0.07210649220164683	0.5411844878224575	1.0189507319807978	0.1329621368751675	0.5442804626146275	1.1211536677290792	0.11264363637526231	0.5137254321695052	1.1535078571305173	0.05811693780578267	0.5671251518105747	1.1458048982096047
454	7.694915254237288	0.3641799088825517	0.5846273045668601	0.9406362873496705	0.3645226558454818	0.7214380906256537	1.34784549569038	0.3552276729147187	0.8818011024396821	1.7880623999572807	0.3013590182653545	0.7465875420362739	1.8426986300219825	0.36838889813796644	0.7103397009840476	1.8226869743500171	0.3457856546940364	0.9018089757611818	1.8065269316669328	0.16287548516310726	0.5819200673295238	0.9572247325819963	0.1755912505352816	0.6698476329086631	1.3528348010731	0.18974517789800502	0.762986431681801	1.7662065221293375	0.18704854029928164	0.6362334169839637	1.7959796872066733	0.12864757381646696	0.6611428404682247	1.7862692435574847	0.19853766264581493	0.8365220646576913	1.8034387677566315	0.2529566463106717	0.48029423090777534	0.43841591476965674	0.25268971903075194	0.3866867095927584	0.20700073066581287	0.26350049012967613	0.33777924418127764	0.3491007056275151	0.42570865342645803	0.5034630167547897	0.5126763145310664	0.4597836923310923	0.5504370176902914	0.7564855742413702	0.4577632558492165	0.5607874079225952	1.010380214822445	0.40818393202290765	0.5678167161513255	1.120011652434374	0.43869935279649724	0.5448615043725146	1.122305931360878	0.46146148689549354	0.5722098744374697	1.1203377610396386	0.0998987855971492	0.5274420624613491	0.5103896674605658	0.06825994972216262	0.5517655824411627	0.7843977994922128	0.07213656067915133	0.5410264791598585	1.0189058651048577	0.13258798669529145	0.5443971138764527	1.121184217528777	0.11273560411549025	0.5135108015356795	1.1532901801213482	0.05806068309748257	0.5670524751081613	1.1457387067325642
455	7.711864406779661	0.36403601925894136	0.5848504430861211	0.9404009102581364	0.3646758189673036	0.7222677842398669	1.3495312206230166	0.3552444194778091	0.8816448768947642	1.7879521527467777	0.2999787051248593	0.7413872438094029	1.8395522284831558	0.36781007344399863	0.7137522645360955	1.8233252392078587	0.3458511333565327	0.901673814696321	1.8064274525368107	0.1628417231387061	0.5818866819787524	0.9572202877312769	0.1757631442088159	0.6704167978091022	1.3544257346487525	0.18972495748377843	0.7629423362215707	1.766145252894353	0.18557688577318843	0.632425289485958	1.7923440200104708	0.12869183173114496	0.6609423838469838	1.7860861335834988	0.19850412569134274	0.8365593436552737	1.8034930217890073	0.2529616074072614	0.4802211419810527	0.43842588015116757	0.2526916118665814	0.38664683094920743	0.20699433248959265	0.26350503375387163	0.3377499242664309	0.34916150814118174	0.4256942240347211	0.5034364134768198	0.5126575737187165	0.4590769542965748	0.5472602116377355	0.7563821009607464	0.4577635923696499	0.5608549341986848	1.0103709940270171	0.4078202866467997	0.5689242533386561	1.12018733703953	0.4387000959425206	0.5446877191897864	1.1231016895962374	0.46156532457037436	0.5719010032463946	1.1205308773571492	0.10003775759322574	0.5308612463625322	0.5114298802848256	0.06829326846200537	0.5516990346493844	0.7854122189214828	0.07215096711574528	0.5409247168681447	1.0188635998755502	0.131520648030194	0.5441045280281352	1.121173553602881	0.11272543869475742	0.5134819312267607	1.1532635027009306	0.058026832843481944	0.5668244730202782	1.1455333070151226
